<svg xmlns="http://www.w3.org/2000/svg" viewBox="67 67 105 105">
    <path d="M 146.152344 108.371094 C 141.601562 98.128906 131.363281 91.199219 119.957031 91.140625 C 104.148438 91.078125 91.097656 104.125 91.035156 120.03125 C 90.976562 135.941406 103.941406 149.074219 119.746094 149.136719 L 172.109375 149.347656 L 172.019531 173.058594 L 119.65625 172.847656 C 90.828125 172.726562 67.355469 148.925781 67.476562 119.941406 C 67.59375 90.929688 91.246094 67.308594 120.046875 67.429688 C 148.875 67.550781 172.347656 91.351562 172.226562 120.332031 L 172.167969 132.203125 L 119.808594 131.992188 C 113.308594 131.964844 108.042969 126.628906 108.070312 120.09375 C 108.101562 113.554688 113.398438 108.253906 119.898438 108.28125 Z M 146.152344 108.371094 "/>
</svg>