<svg xmlns="http://www.w3.org/2000/svg" xmlns:xlink="http://www.w3.org/1999/xlink" zoomAndPan="magnify" viewBox="67 67 105 105" preserveAspectRatio="xMidYMid meet" version="1.0"><defs><clipPath id="e95b15e3b8"><path d="M 135 84.753906 L 154.328125 84.753906 L 154.328125 155.253906 L 135 155.253906 Z M 135 84.753906 " clip-rule="nonzero"/></clipPath><clipPath id="e5b0e76b3d"><path d="M 87 87 L 117 87 L 117 155.253906 L 87 155.253906 Z M 87 87 " clip-rule="nonzero"/></clipPath></defs><path fill="#000000" d="M 119.625 126.304688 C 119.382812 126.074219 119.109375 126.023438 118.800781 126.15625 C 118.496094 126.285156 118.34375 126.519531 118.34375 126.851562 L 118.34375 132.449219 L 110.234375 132.449219 C 110.027344 132.449219 109.847656 132.523438 109.699219 132.671875 C 109.550781 132.820312 109.476562 133 109.476562 133.207031 C 109.476562 133.417969 109.550781 133.59375 109.699219 133.742188 C 109.847656 133.890625 110.027344 133.964844 110.234375 133.964844 L 119.101562 133.964844 C 119.308594 133.964844 119.488281 133.890625 119.636719 133.742188 C 119.78125 133.59375 119.855469 133.417969 119.855469 133.207031 L 119.855469 128.625 L 130.152344 138.496094 L 119.855469 148.367188 L 119.855469 143.785156 C 119.855469 143.574219 119.78125 143.398438 119.636719 143.25 C 119.488281 143.101562 119.308594 143.027344 119.101562 143.027344 L 110.234375 143.027344 C 110.027344 143.027344 109.847656 143.101562 109.699219 143.246094 C 109.550781 143.394531 109.476562 143.574219 109.476562 143.785156 C 109.476562 143.992188 109.550781 144.171875 109.699219 144.320312 C 109.847656 144.46875 110.027344 144.542969 110.234375 144.539062 L 118.34375 144.539062 L 118.34375 150.140625 C 118.34375 150.472656 118.496094 150.703125 118.800781 150.835938 C 119.109375 150.964844 119.382812 150.917969 119.625 150.6875 L 131.769531 139.042969 C 131.925781 138.894531 132.003906 138.710938 132.003906 138.496094 C 132.003906 138.28125 131.925781 138.097656 131.769531 137.949219 Z M 119.625 126.304688 " fill-opacity="1" fill-rule="nonzero"/><g clip-path="url(#e95b15e3b8)"><path fill="#000000" d="M 154.039062 123.527344 C 153.765625 123.089844 153.441406 122.703125 153.121094 122.328125 C 153.121094 122.328125 152.355469 121.378906 152.03125 120.933594 C 152.488281 115.035156 152.5625 104.820312 148.304688 100.25 C 148.925781 99.878906 149.492188 99.4375 150 98.921875 C 150.503906 98.40625 150.9375 97.835938 151.296875 97.207031 C 151.65625 96.582031 151.925781 95.917969 152.113281 95.21875 C 152.296875 94.519531 152.390625 93.808594 152.390625 93.085938 C 152.390625 88.492188 148.652344 84.753906 144.058594 84.753906 C 139.460938 84.753906 135.726562 88.492188 135.726562 93.085938 C 135.726562 94.339844 135.996094 95.53125 136.535156 96.664062 C 137.074219 97.796875 137.828125 98.757812 138.800781 99.546875 C 136.28125 101.375 135.726562 103.492188 135.726562 106.339844 L 135.726562 125.21875 C 135.726562 125.242188 135.726562 125.265625 135.730469 125.289062 L 138.121094 150.695312 C 138.121094 150.992188 138.152344 151.289062 138.210938 151.582031 C 138.273438 151.871094 138.359375 152.15625 138.476562 152.429688 C 138.589844 152.707031 138.734375 152.96875 138.898438 153.214844 C 139.066406 153.460938 139.253906 153.691406 139.464844 153.902344 C 139.679688 154.109375 139.90625 154.300781 140.15625 154.464844 C 140.402344 154.628906 140.664062 154.769531 140.941406 154.882812 C 141.214844 155 141.5 155.085938 141.792969 155.144531 C 142.085938 155.203125 142.378906 155.230469 142.679688 155.234375 C 142.976562 155.234375 143.273438 155.207031 143.566406 155.148438 C 143.859375 155.09375 144.140625 155.007812 144.417969 154.894531 C 144.695312 154.78125 144.957031 154.644531 145.207031 154.480469 C 145.457031 154.316406 145.6875 154.128906 145.898438 153.921875 C 146.113281 153.710938 146.300781 153.484375 146.46875 153.238281 C 146.640625 152.992188 146.78125 152.730469 146.898438 152.457031 C 147.015625 152.183594 147.105469 151.902344 147.167969 151.609375 C 147.230469 151.316406 147.261719 151.023438 147.265625 150.722656 L 151.082031 128.117188 C 151.160156 128.140625 151.242188 128.160156 151.328125 128.179688 C 151.480469 128.207031 151.640625 128.222656 151.796875 128.222656 C 152.480469 128.210938 153.078125 127.988281 153.597656 127.546875 C 154.261719 127 154.644531 126.230469 154.652344 125.4375 C 154.65625 124.808594 154.457031 124.183594 154.039062 123.527344 Z M 137.242188 93.085938 C 137.242188 92.640625 137.285156 92.195312 137.371094 91.757812 C 137.460938 91.316406 137.589844 90.890625 137.761719 90.476562 C 137.929688 90.066406 138.140625 89.671875 138.390625 89.300781 C 138.636719 88.925781 138.921875 88.582031 139.238281 88.265625 C 139.554688 87.949219 139.898438 87.667969 140.269531 87.417969 C 140.644531 87.167969 141.035156 86.960938 141.449219 86.789062 C 141.863281 86.617188 142.289062 86.488281 142.726562 86.398438 C 143.167969 86.3125 143.609375 86.269531 144.058594 86.269531 C 144.503906 86.269531 144.949219 86.3125 145.386719 86.398438 C 145.828125 86.488281 146.253906 86.617188 146.667969 86.789062 C 147.082031 86.960938 147.472656 87.167969 147.847656 87.417969 C 148.21875 87.667969 148.5625 87.949219 148.878906 88.265625 C 149.195312 88.582031 149.476562 88.925781 149.726562 89.300781 C 149.976562 89.671875 150.183594 90.066406 150.355469 90.476562 C 150.527344 90.890625 150.65625 91.316406 150.746094 91.757812 C 150.832031 92.195312 150.875 92.640625 150.875 93.085938 C 150.875 93.535156 150.832031 93.976562 150.746094 94.417969 C 150.65625 94.855469 150.527344 95.28125 150.355469 95.695312 C 150.183594 96.109375 149.976562 96.503906 149.726562 96.875 C 149.476562 97.246094 149.195312 97.589844 148.878906 97.90625 C 148.5625 98.222656 148.21875 98.507812 147.84375 98.753906 C 147.472656 99.003906 147.078125 99.214844 146.667969 99.386719 C 146.253906 99.554688 145.824219 99.6875 145.386719 99.773438 C 144.949219 99.859375 144.503906 99.902344 144.058594 99.902344 C 143.609375 99.902344 143.167969 99.859375 142.726562 99.769531 C 142.289062 99.683594 141.863281 99.554688 141.449219 99.382812 C 141.035156 99.210938 140.644531 99 140.273438 98.75 C 139.898438 98.503906 139.554688 98.21875 139.238281 97.902344 C 138.921875 97.585938 138.640625 97.242188 138.390625 96.871094 C 138.144531 96.5 137.933594 96.105469 137.761719 95.695312 C 137.589844 95.28125 137.460938 94.855469 137.375 94.414062 C 137.285156 93.976562 137.242188 93.535156 137.242188 93.085938 Z M 152.636719 126.378906 C 152.324219 126.636719 151.941406 126.753906 151.605469 126.6875 C 151.164062 126.601562 150.722656 126.273438 150.316406 125.945312 C 145.199219 121.851562 141.632812 116.054688 140.539062 110.046875 C 140.421875 109.40625 140.324219 108.726562 140.402344 108.085938 C 140.425781 107.875 140.375 107.691406 140.246094 107.527344 C 140.113281 107.363281 139.945312 107.269531 139.738281 107.242188 C 139.53125 107.21875 139.34375 107.269531 139.179688 107.402344 C 139.015625 107.53125 138.921875 107.699219 138.898438 107.90625 C 138.800781 108.746094 138.914062 109.5625 139.050781 110.320312 C 140.210938 116.683594 143.972656 122.8125 149.371094 127.128906 C 149.46875 127.207031 149.570312 127.289062 149.675781 127.367188 L 145.769531 150.53125 C 145.761719 150.574219 145.757812 150.613281 145.757812 150.65625 C 145.75 151.058594 145.671875 151.445312 145.511719 151.816406 C 145.355469 152.183594 145.132812 152.511719 144.847656 152.792969 C 144.558594 153.074219 144.230469 153.292969 143.859375 153.445312 C 143.488281 153.597656 143.097656 153.675781 142.699219 153.675781 C 142.296875 153.675781 141.910156 153.597656 141.535156 153.445312 C 141.164062 153.292969 140.835938 153.074219 140.546875 152.792969 C 140.261719 152.511719 140.039062 152.183594 139.882812 151.816406 C 139.726562 151.445312 139.644531 151.058594 139.636719 150.65625 C 139.636719 150.632812 139.636719 150.609375 139.632812 150.585938 L 137.242188 125.183594 L 137.242188 106.339844 C 137.242188 103.667969 137.71875 102.003906 140.167969 100.449219 C 141.199219 100.996094 142.296875 101.3125 143.460938 101.394531 C 144.625 101.480469 145.757812 101.324219 146.859375 100.933594 C 150.597656 104.367188 150.929688 112.828125 150.640625 118.765625 C 149.050781 115.945312 148.179688 112.941406 148.144531 110.019531 C 148.144531 109.8125 148.070312 109.632812 147.921875 109.488281 C 147.773438 109.339844 147.59375 109.269531 147.386719 109.269531 L 147.378906 109.269531 C 147.167969 109.273438 146.992188 109.347656 146.84375 109.496094 C 146.699219 109.648438 146.628906 109.824219 146.628906 110.035156 C 146.683594 114.546875 148.550781 119.226562 151.894531 123.210938 C 151.894531 123.210938 152.542969 123.980469 152.761719 124.328125 C 153.023438 124.742188 153.140625 125.089844 153.140625 125.425781 C 153.136719 125.761719 152.949219 126.121094 152.636719 126.378906 Z M 152.636719 126.378906 " fill-opacity="1" fill-rule="nonzero"/></g><g clip-path="url(#e5b0e76b3d)"><path fill="#000000" d="M 110.394531 124.078125 C 110.398438 123.449219 110.199219 122.824219 109.78125 122.164062 C 109.507812 121.730469 108.796875 120.882812 108.796875 120.882812 C 105.679688 117.160156 103.9375 112.824219 103.886719 108.65625 C 103.886719 108.589844 104.183594 105.300781 105.570312 103.847656 C 106.324219 104.066406 107.09375 104.175781 107.882812 104.175781 C 112.476562 104.175781 116.210938 100.4375 116.210938 95.84375 C 116.210938 91.25 112.476562 87.511719 107.882812 87.511719 C 103.289062 87.511719 99.550781 91.25 99.550781 95.847656 C 99.550781 96.226562 99.574219 96.601562 99.625 96.972656 C 99.558594 96.976562 99.488281 96.988281 99.421875 97.007812 C 92.839844 99.210938 88.839844 104.851562 87.859375 113.3125 C 87.160156 119.371094 88.222656 124.746094 88.34375 125.332031 L 90.726562 150.695312 C 90.730469 150.996094 90.761719 151.289062 90.820312 151.582031 C 90.882812 151.875 90.96875 152.15625 91.085938 152.433594 C 91.199219 152.707031 91.339844 152.96875 91.507812 153.214844 C 91.675781 153.464844 91.863281 153.691406 92.074219 153.902344 C 92.285156 154.113281 92.515625 154.300781 92.765625 154.464844 C 93.011719 154.632812 93.273438 154.769531 93.550781 154.886719 C 93.824219 155 94.109375 155.085938 94.402344 155.144531 C 94.691406 155.203125 94.988281 155.234375 95.285156 155.234375 C 95.585938 155.234375 95.878906 155.207031 96.171875 155.152344 C 96.464844 155.09375 96.75 155.007812 97.027344 154.898438 C 97.304688 154.785156 97.566406 154.644531 97.816406 154.480469 C 98.0625 154.320312 98.292969 154.132812 98.507812 153.921875 C 98.71875 153.714844 98.910156 153.488281 99.078125 153.242188 C 99.246094 152.992188 99.390625 152.734375 99.507812 152.460938 C 99.625 152.183594 99.714844 151.902344 99.777344 151.609375 C 99.835938 151.320312 99.871094 151.023438 99.875 150.726562 L 104.15625 125.347656 C 104.167969 125.265625 104.167969 125.183594 104.15625 125.101562 C 104.148438 125.054688 104.140625 125 104.132812 124.949219 C 104.453125 125.230469 104.78125 125.503906 105.113281 125.769531 C 105.648438 126.199219 106.285156 126.667969 107.070312 126.816406 C 107.226562 126.84375 107.382812 126.859375 107.542969 126.859375 C 108.222656 126.851562 108.824219 126.625 109.34375 126.183594 C 110.007812 125.640625 110.390625 124.871094 110.394531 124.078125 Z M 107.882812 89.027344 C 108.332031 89.027344 108.773438 89.070312 109.214844 89.160156 C 109.652344 89.246094 110.078125 89.375 110.492188 89.546875 C 110.90625 89.71875 111.296875 89.929688 111.667969 90.179688 C 112.042969 90.425781 112.386719 90.710938 112.703125 91.027344 C 113.019531 91.34375 113.300781 91.6875 113.550781 92.058594 C 113.796875 92.429688 114.007812 92.824219 114.179688 93.238281 C 114.351562 93.652344 114.480469 94.078125 114.566406 94.515625 C 114.65625 94.953125 114.699219 95.398438 114.699219 95.847656 C 114.699219 96.292969 114.65625 96.738281 114.566406 97.175781 C 114.480469 97.613281 114.351562 98.039062 114.179688 98.453125 C 114.007812 98.867188 113.796875 99.261719 113.550781 99.632812 C 113.300781 100.003906 113.019531 100.347656 112.703125 100.664062 C 112.386719 100.980469 112.042969 101.265625 111.667969 101.511719 C 111.296875 101.761719 110.902344 101.972656 110.492188 102.144531 C 110.078125 102.316406 109.652344 102.445312 109.210938 102.53125 C 108.773438 102.617188 108.328125 102.664062 107.882812 102.664062 C 107.433594 102.664062 106.992188 102.621094 106.550781 102.53125 C 106.113281 102.445312 105.6875 102.316406 105.273438 102.144531 C 104.859375 101.972656 104.46875 101.761719 104.09375 101.515625 C 103.722656 101.265625 103.378906 100.984375 103.0625 100.667969 C 102.746094 100.351562 102.460938 100.007812 102.214844 99.632812 C 101.964844 99.261719 101.753906 98.871094 101.582031 98.457031 C 101.414062 98.042969 101.28125 97.617188 101.195312 97.175781 C 101.109375 96.738281 101.0625 96.296875 101.0625 95.847656 C 101.066406 95.398438 101.109375 94.957031 101.195312 94.519531 C 101.285156 94.078125 101.414062 93.652344 101.585938 93.238281 C 101.753906 92.824219 101.964844 92.433594 102.214844 92.0625 C 102.464844 91.6875 102.746094 91.34375 103.0625 91.027344 C 103.378906 90.710938 103.722656 90.429688 104.09375 90.179688 C 104.46875 89.929688 104.859375 89.71875 105.273438 89.550781 C 105.6875 89.378906 106.113281 89.246094 106.550781 89.160156 C 106.992188 89.074219 107.433594 89.027344 107.882812 89.027344 Z M 108.382812 125.019531 C 108.070312 125.277344 107.683594 125.390625 107.351562 125.324219 C 106.90625 125.242188 106.46875 124.914062 106.058594 124.585938 C 100.941406 120.492188 97.378906 114.695312 96.285156 108.683594 C 96.167969 108.046875 96.070312 107.363281 96.148438 106.722656 C 96.171875 106.515625 96.117188 106.332031 95.988281 106.167969 C 95.859375 106.003906 95.691406 105.910156 95.484375 105.882812 C 95.277344 105.859375 95.089844 105.910156 94.925781 106.039062 C 94.761719 106.171875 94.667969 106.339844 94.644531 106.546875 C 94.542969 107.386719 94.65625 108.199219 94.796875 108.957031 C 95.746094 114.1875 98.457031 119.253906 102.386719 123.289062 C 102.5 124.246094 102.601562 124.929688 102.644531 125.214844 L 98.375 150.53125 C 98.367188 150.574219 98.363281 150.617188 98.363281 150.660156 C 98.355469 151.0625 98.273438 151.445312 98.117188 151.816406 C 97.960938 152.1875 97.738281 152.511719 97.453125 152.792969 C 97.164062 153.078125 96.835938 153.292969 96.464844 153.445312 C 96.089844 153.597656 95.703125 153.675781 95.300781 153.675781 C 94.902344 153.675781 94.511719 153.597656 94.140625 153.445312 C 93.769531 153.292969 93.441406 153.078125 93.152344 152.792969 C 92.867188 152.511719 92.644531 152.1875 92.488281 151.816406 C 92.328125 151.445312 92.25 151.0625 92.242188 150.660156 C 92.242188 150.636719 92.242188 150.613281 92.238281 150.585938 L 89.847656 125.148438 C 89.847656 125.121094 89.84375 125.089844 89.835938 125.0625 C 89.789062 124.84375 85.34375 103.316406 99.910156 98.445312 C 99.929688 98.4375 99.945312 98.429688 99.964844 98.421875 C 100.308594 99.476562 100.84375 100.425781 101.570312 101.269531 C 102.296875 102.113281 103.15625 102.785156 104.148438 103.289062 C 102.601562 105.441406 102.375 108.605469 102.378906 108.675781 C 102.429688 113.1875 104.300781 117.867188 107.640625 121.855469 C 107.640625 121.855469 108.289062 122.625 108.507812 122.972656 C 108.765625 123.386719 108.886719 123.734375 108.886719 124.066406 C 108.882812 124.402344 108.691406 124.761719 108.382812 125.019531 Z M 108.382812 125.019531 " fill-opacity="1" fill-rule="nonzero"/></g></svg>