<svg xmlns="http://www.w3.org/2000/svg" xmlns:xlink="http://www.w3.org/1999/xlink" zoomAndPan="magnify"  viewBox="67 67 105 105" preserveAspectRatio="xMidYMid meet" version="1.0"><defs><clipPath id="80f88985f7"><path d="M 82.65625 83.867188 L 157.65625 83.867188 L 157.65625 155.867188 L 82.65625 155.867188 Z M 82.65625 83.867188 " clip-rule="nonzero"/></clipPath></defs><g clip-path="url(#80f88985f7)"><path d="M 103.96875 94.480469 L 103.96875 93.359375 C 103.96875 92.519531 103.734375 91.863281 103.261719 91.347656 C 102.792969 90.835938 102.226562 90.554688 101.519531 90.554688 L 99.445312 90.554688 L 99.445312 97.289062 L 101.519531 97.289062 C 102.226562 97.289062 102.792969 97.007812 103.261719 96.492188 C 103.734375 95.976562 103.96875 95.277344 103.96875 94.480469 Z M 102.648438 94.480469 C 102.648438 94.996094 102.554688 95.417969 102.320312 95.792969 C 102.132812 96.117188 101.847656 96.304688 101.519531 96.304688 L 100.765625 96.304688 L 100.765625 91.628906 L 101.519531 91.628906 C 101.847656 91.628906 102.132812 91.816406 102.320312 92.144531 C 102.507812 92.472656 102.648438 92.890625 102.648438 93.40625 Z M 106.277344 90.554688 L 106.277344 97.289062 L 104.960938 97.289062 L 104.960938 90.554688 Z M 108.683594 91.582031 L 108.683594 93.3125 L 110.753906 93.3125 L 110.753906 94.339844 L 108.683594 94.339844 L 108.683594 96.304688 L 111.179688 96.304688 L 111.179688 97.332031 L 107.410156 97.332031 L 107.410156 90.554688 L 111.179688 90.554688 L 111.179688 91.582031 Z M 116.078125 91.582031 L 114.476562 91.582031 L 114.476562 97.289062 L 113.15625 97.289062 L 113.15625 91.582031 L 111.601562 91.582031 L 111.601562 90.554688 L 116.078125 90.554688 Z M 124.417969 154.839844 C 124.417969 155.214844 124.089844 155.542969 123.710938 155.542969 L 83.472656 155.542969 C 83.097656 155.542969 82.765625 155.214844 82.765625 154.839844 L 82.765625 84.570312 C 82.765625 84.195312 83.097656 83.867188 83.472656 83.867188 L 131.582031 83.867188 C 131.957031 83.867188 132.289062 84.195312 132.289062 84.570312 L 132.289062 116.785156 C 132.289062 117.15625 131.957031 117.484375 131.582031 117.484375 C 131.203125 117.484375 130.875 117.15625 130.875 116.785156 L 130.875 85.273438 L 84.179688 85.273438 L 84.179688 154.140625 L 123.710938 154.140625 C 124.136719 154.140625 124.417969 154.464844 124.417969 154.839844 Z M 134.125 88.589844 C 134.171875 88.21875 134.503906 87.9375 134.925781 87.984375 L 146.472656 89.339844 C 146.660156 89.339844 146.847656 89.480469 146.941406 89.621094 C 147.035156 89.761719 147.132812 89.945312 147.085938 90.132812 L 145.058594 106.964844 C 145.011719 107.339844 144.726562 107.574219 144.351562 107.574219 C 144.304688 107.574219 144.304688 107.574219 144.257812 107.574219 C 143.878906 107.527344 143.597656 107.199219 143.644531 106.777344 L 145.625 90.648438 L 134.785156 89.339844 C 134.363281 89.292969 134.078125 88.964844 134.125 88.589844 Z M 92.425781 104.769531 L 92.425781 108.226562 L 95.960938 108.226562 L 95.960938 105.890625 C 95.960938 105.515625 96.289062 105.1875 96.667969 105.1875 C 97.042969 105.1875 97.371094 105.515625 97.371094 105.890625 L 97.371094 108.226562 L 114.523438 108.226562 C 114.902344 108.226562 115.230469 108.554688 115.230469 108.929688 C 115.230469 109.304688 114.902344 109.628906 114.523438 109.628906 L 91.71875 109.628906 C 91.339844 109.628906 91.011719 109.304688 91.011719 108.929688 L 91.011719 104.066406 C 91.011719 103.691406 91.339844 103.363281 91.71875 103.363281 L 94.167969 103.363281 C 94.546875 103.363281 94.875 103.691406 94.875 104.066406 C 94.875 104.441406 94.546875 104.769531 94.167969 104.769531 Z M 114.949219 121.085938 L 91.71875 121.085938 C 91.339844 121.085938 91.011719 120.757812 91.011719 120.382812 L 91.011719 115.519531 C 91.011719 115.148438 91.339844 114.820312 91.71875 114.820312 L 94.167969 114.820312 C 94.546875 114.820312 94.875 115.148438 94.875 115.519531 C 94.875 115.894531 94.546875 116.222656 94.167969 116.222656 L 92.425781 116.222656 L 92.425781 119.683594 L 95.960938 119.683594 L 95.960938 117.34375 C 95.960938 116.96875 96.289062 116.644531 96.667969 116.644531 C 97.042969 116.644531 97.371094 116.96875 97.371094 117.34375 L 97.371094 119.683594 L 114.949219 119.683594 C 115.324219 119.683594 115.65625 120.007812 115.65625 120.382812 C 115.65625 120.757812 115.324219 121.085938 114.949219 121.085938 Z M 115.230469 131.835938 C 115.230469 132.210938 114.902344 132.539062 114.523438 132.539062 L 91.71875 132.539062 C 91.339844 132.539062 91.011719 132.210938 91.011719 131.835938 L 91.011719 126.976562 C 91.011719 126.601562 91.339844 126.273438 91.71875 126.273438 L 94.167969 126.273438 C 94.546875 126.273438 94.875 126.601562 94.875 126.976562 C 94.875 127.347656 94.546875 127.675781 94.167969 127.675781 L 92.425781 127.675781 L 92.425781 131.136719 L 95.960938 131.136719 L 95.960938 128.800781 C 95.960938 128.425781 96.289062 128.097656 96.667969 128.097656 C 97.042969 128.097656 97.371094 128.378906 97.371094 128.753906 L 97.371094 131.089844 L 114.523438 131.089844 C 114.902344 131.136719 115.230469 131.464844 115.230469 131.835938 Z M 92.425781 139.085938 L 92.425781 142.542969 L 95.960938 142.542969 L 95.960938 140.207031 C 95.960938 139.832031 96.289062 139.503906 96.667969 139.503906 C 97.042969 139.503906 97.371094 139.832031 97.371094 140.207031 L 97.371094 142.542969 L 114.523438 142.542969 C 114.902344 142.542969 115.230469 142.871094 115.230469 143.246094 C 115.230469 143.621094 114.902344 143.945312 114.523438 143.945312 L 91.71875 143.945312 C 91.339844 143.945312 91.011719 143.621094 91.011719 143.246094 L 91.011719 138.382812 C 91.011719 138.007812 91.339844 137.683594 91.71875 137.683594 L 94.167969 137.683594 C 94.546875 137.683594 94.875 138.007812 94.875 138.382812 C 94.875 138.757812 94.546875 139.085938 94.167969 139.085938 Z M 141.003906 139.691406 C 140.769531 139.363281 140.863281 138.945312 141.148438 138.710938 C 141.335938 138.570312 141.617188 138.523438 141.855469 138.617188 C 141.949219 138.476562 142.042969 138.335938 142.089844 138.148438 C 142.183594 137.960938 142.183594 137.914062 142.183594 137.867188 C 142.183594 137.820312 142.136719 137.820312 142.136719 137.820312 C 141.757812 137.960938 141.335938 137.777344 141.195312 137.402344 C 141.050781 137.027344 141.242188 136.652344 141.570312 136.511719 C 141.855469 136.417969 142.136719 136.371094 142.417969 136.464844 C 142.9375 136.558594 143.363281 136.980469 143.503906 137.496094 C 143.644531 138.007812 143.457031 138.476562 143.363281 138.710938 C 143.125 139.179688 142.84375 139.644531 142.417969 140.160156 C 142.277344 140.300781 142.089844 140.394531 141.902344 140.394531 C 141.902344 140.394531 141.902344 140.394531 141.855469 140.394531 C 141.617188 140.394531 141.429688 140.300781 141.335938 140.113281 Z M 134.21875 136.558594 C 134.597656 136.699219 134.785156 137.121094 134.644531 137.449219 C 134.503906 137.820312 134.078125 138.007812 133.75 137.867188 C 133.75 137.867188 133.75 137.867188 133.703125 137.867188 C 133.703125 137.867188 133.65625 137.914062 133.65625 137.914062 C 133.65625 137.914062 133.65625 138.007812 133.75 138.195312 C 133.796875 138.335938 133.890625 138.476562 133.984375 138.664062 C 134.21875 138.570312 134.457031 138.570312 134.691406 138.757812 C 135.019531 138.992188 135.070312 139.410156 134.832031 139.738281 L 134.503906 140.207031 C 134.363281 140.394531 134.171875 140.488281 133.984375 140.488281 C 133.984375 140.488281 133.984375 140.488281 133.9375 140.488281 C 133.75 140.488281 133.5625 140.394531 133.417969 140.253906 C 132.996094 139.738281 132.664062 139.316406 132.476562 138.804688 C 132.382812 138.570312 132.148438 138.101562 132.335938 137.589844 C 132.476562 137.074219 132.902344 136.652344 133.417969 136.511719 C 133.65625 136.464844 133.9375 136.464844 134.21875 136.558594 Z M 157.355469 131.089844 C 157.308594 130.15625 157.167969 129.40625 157.027344 128.425781 C 156.179688 123.703125 152.265625 120.054688 147.226562 119.355469 C 144.773438 118.980469 142.511719 119.308594 140.628906 120.289062 C 140.628906 120.289062 140.628906 120.289062 140.582031 120.289062 C 140.015625 120.570312 139.449219 120.804688 138.839844 120.898438 C 138.695312 119.542969 139.074219 118.324219 139.261719 117.953125 C 140.957031 116.457031 142.703125 115.660156 144.398438 115.566406 C 145.578125 115.519531 146.332031 115.800781 147.179688 116.128906 C 148.167969 116.503906 149.25 116.921875 151.089844 116.785156 C 153.726562 116.550781 156.980469 115.101562 157.308594 114.632812 C 157.449219 114.445312 157.449219 114.210938 157.402344 114.023438 C 157.402344 114.023438 157.402344 113.976562 157.402344 113.976562 C 157.308594 113.746094 157.074219 113.558594 156.835938 113.558594 C 156.320312 113.417969 153.164062 111.875 150.335938 110.425781 C 150.335938 110.425781 150.289062 110.425781 150.289062 110.425781 C 147.648438 109.304688 145.292969 109.164062 143.21875 110.097656 C 140.0625 111.546875 138.933594 114.914062 138.789062 115.289062 L 137.988281 117.34375 C 137.894531 117.578125 137.234375 119.167969 137.425781 121.039062 C 136.671875 120.945312 135.964844 120.710938 135.257812 120.382812 C 135.257812 120.382812 135.210938 120.382812 135.210938 120.335938 C 133.324219 119.355469 131.0625 119.027344 128.613281 119.402344 C 123.617188 120.148438 119.660156 123.796875 118.8125 128.472656 C 118.625 129.453125 118.484375 130.203125 118.484375 131.136719 C 118.246094 135.203125 119.425781 137.589844 121.6875 142.308594 C 122.535156 144.039062 123.570312 146.191406 124.75 148.902344 C 124.75 148.902344 124.75 148.902344 124.75 148.949219 C 125.21875 149.976562 126.304688 152.457031 128.753906 154.140625 C 129.601562 154.746094 130.355469 155.027344 130.59375 155.121094 C 132.570312 155.867188 134.925781 155.730469 137.046875 154.792969 C 137.613281 154.511719 138.273438 154.511719 138.839844 154.792969 C 140.015625 155.355469 141.289062 155.636719 142.558594 155.636719 C 143.503906 155.636719 144.445312 155.496094 145.292969 155.167969 C 145.578125 155.074219 146.28125 154.792969 147.132812 154.1875 C 149.582031 152.457031 150.664062 150.023438 151.136719 148.949219 C 152.3125 146.285156 153.351562 144.085938 154.199219 142.355469 C 156.414062 137.542969 157.542969 135.15625 157.355469 131.089844 Z M 143.785156 111.359375 C 144.492188 111.03125 145.292969 110.890625 146.09375 110.890625 C 147.179688 110.890625 148.355469 111.171875 149.628906 111.6875 C 151.464844 112.621094 153.539062 113.699219 154.953125 114.351562 C 153.917969 114.773438 152.363281 115.332031 150.902344 115.425781 C 149.441406 115.566406 148.542969 115.195312 147.648438 114.867188 C 146.707031 114.492188 145.765625 114.117188 144.257812 114.210938 C 142.890625 114.304688 141.476562 114.726562 140.15625 115.566406 C 140.394531 114.867188 141.476562 112.386719 143.785156 111.359375 Z M 152.878906 141.65625 C 152.03125 143.386719 150.996094 145.582031 149.816406 148.296875 C 149.394531 149.230469 148.449219 151.425781 146.28125 152.921875 C 145.527344 153.4375 144.917969 153.671875 144.773438 153.765625 C 143.125 154.371094 141.195312 154.28125 139.402344 153.484375 C 138.933594 153.25 138.414062 153.15625 137.894531 153.15625 C 137.378906 153.15625 136.859375 153.25 136.386719 153.484375 C 134.644531 154.28125 132.664062 154.417969 131.015625 153.765625 C 130.828125 153.71875 130.214844 153.484375 129.507812 152.921875 C 127.386719 151.425781 126.398438 149.230469 125.972656 148.296875 C 124.796875 145.582031 123.761719 143.433594 122.910156 141.65625 C 120.648438 136.980469 119.660156 134.875 119.847656 131.136719 C 119.894531 130.296875 119.992188 129.59375 120.179688 128.660156 C 120.886719 124.636719 124.417969 121.363281 128.753906 120.710938 C 130.875 120.382812 132.855469 120.664062 134.457031 121.503906 C 134.457031 121.503906 134.503906 121.503906 134.503906 121.503906 C 134.503906 121.503906 134.550781 121.503906 134.550781 121.503906 C 135.585938 122.066406 136.71875 122.347656 137.847656 122.394531 C 137.847656 122.394531 137.894531 122.394531 137.894531 122.394531 C 139.027344 122.347656 140.15625 122.066406 141.195312 121.503906 C 141.195312 121.503906 141.242188 121.503906 141.242188 121.457031 C 142.84375 120.617188 144.871094 120.335938 146.988281 120.664062 C 151.324219 121.316406 154.859375 124.542969 155.566406 128.613281 C 155.753906 129.546875 155.847656 130.25 155.894531 131.089844 C 156.132812 134.875 155.09375 137.027344 152.878906 141.65625 Z M 147.695312 130.808594 C 149.347656 132.914062 149.25 135.25 149.109375 136.1875 C 149.0625 136.699219 148.96875 137.214844 148.875 137.730469 C 148.496094 139.691406 147.886719 141.609375 147.035156 143.433594 C 146.28125 145.023438 144.964844 146.285156 143.410156 146.9375 C 142.136719 147.453125 140.816406 147.3125 139.59375 147.125 C 138.839844 147.03125 138.085938 146.9375 137.425781 147.03125 C 137.09375 147.078125 136.8125 147.125 136.480469 147.125 C 135.824219 147.21875 135.164062 147.3125 134.503906 147.3125 C 133.84375 147.3125 133.183594 147.21875 132.476562 146.9375 C 130.875 146.332031 129.554688 145.023438 128.800781 143.433594 C 127.953125 141.609375 127.339844 139.691406 126.964844 137.730469 C 126.871094 137.214844 126.777344 136.699219 126.726562 136.1875 C 126.492188 134.175781 127.058594 132.164062 128.332031 130.621094 C 129.460938 129.21875 131.0625 128.378906 132.808594 128.191406 C 133.183594 128.144531 133.5625 128.425781 133.5625 128.84375 C 133.5625 129.265625 133.324219 129.59375 132.949219 129.59375 C 131.582031 129.734375 130.355469 130.386719 129.460938 131.511719 C 128.472656 132.726562 128 134.410156 128.1875 136.046875 C 128.234375 136.511719 128.332031 137.027344 128.425781 137.496094 C 128.753906 139.363281 129.320312 141.1875 130.121094 142.871094 C 130.734375 144.179688 131.769531 145.210938 133.042969 145.675781 C 134.078125 146.097656 135.164062 145.910156 136.339844 145.769531 C 136.671875 145.722656 137 145.675781 137.332031 145.628906 C 138.179688 145.535156 138.980469 145.628906 139.828125 145.722656 C 140.957031 145.863281 142.042969 146.003906 142.9375 145.628906 C 144.164062 145.117188 145.199219 144.132812 145.8125 142.824219 C 146.613281 141.09375 147.179688 139.316406 147.507812 137.449219 C 147.601562 136.980469 147.648438 136.464844 147.742188 136 C 147.789062 135.390625 147.933594 133.332031 146.613281 131.652344 C 145.386719 130.109375 143.644531 129.6875 142.9375 129.59375 C 142.558594 129.546875 142.277344 129.171875 142.371094 128.800781 C 142.417969 128.425781 142.796875 128.144531 143.171875 128.238281 C 143.972656 128.332031 146.1875 128.84375 147.695312 130.808594 Z M 147.695312 130.808594 " fill-opacity="1" fill-rule="nonzero"/></g></svg>