<svg xmlns="http://www.w3.org/2000/svg" xmlns:xlink="http://www.w3.org/1999/xlink" zoomAndPan="magnify" viewBox="67 67 105 105" preserveAspectRatio="xMidYMid meet" version="1.0"><defs><clipPath id="89a58c63dc"><path d="M 119 85 L 136 85 L 136 102 L 119 102 Z M 119 85 " clip-rule="nonzero"/></clipPath><clipPath id="2beb03d2a4"><path d="M 84.753906 85.964844 L 153.746094 84.761719 L 154.949219 153.75 L 85.960938 154.953125 Z M 84.753906 85.964844 " clip-rule="nonzero"/></clipPath><clipPath id="e3118ada5f"><path d="M 84.753906 85.964844 L 153.746094 84.761719 L 154.949219 153.75 L 85.960938 154.953125 Z M 84.753906 85.964844 " clip-rule="nonzero"/></clipPath><clipPath id="ad7f0e634a"><path d="M 84.753906 85.964844 L 153.746094 84.761719 L 154.949219 153.75 L 85.960938 154.953125 Z M 84.753906 85.964844 " clip-rule="nonzero"/></clipPath><clipPath id="b208f4b1ab"><path d="M 85 133 L 103 133 L 103 155 L 85 155 Z M 85 133 " clip-rule="nonzero"/></clipPath><clipPath id="ccdec135d0"><path d="M 84.753906 85.964844 L 153.746094 84.761719 L 154.949219 153.75 L 85.960938 154.953125 Z M 84.753906 85.964844 " clip-rule="nonzero"/></clipPath><clipPath id="ed1004fd24"><path d="M 84.753906 85.964844 L 153.746094 84.761719 L 154.949219 153.75 L 85.960938 154.953125 Z M 84.753906 85.964844 " clip-rule="nonzero"/></clipPath><clipPath id="d93d7358c4"><path d="M 84.753906 85.964844 L 153.746094 84.761719 L 154.949219 153.75 L 85.960938 154.953125 Z M 84.753906 85.964844 " clip-rule="nonzero"/></clipPath><clipPath id="e4d918c09a"><path d="M 104 101 L 155 101 L 155 155 L 104 155 Z M 104 101 " clip-rule="nonzero"/></clipPath><clipPath id="f0f2a7a5bb"><path d="M 84.753906 85.964844 L 153.746094 84.761719 L 154.949219 153.75 L 85.960938 154.953125 Z M 84.753906 85.964844 " clip-rule="nonzero"/></clipPath><clipPath id="2700754251"><path d="M 84.753906 85.964844 L 153.746094 84.761719 L 154.949219 153.75 L 85.960938 154.953125 Z M 84.753906 85.964844 " clip-rule="nonzero"/></clipPath><clipPath id="2d2c69d571"><path d="M 84.753906 85.964844 L 153.746094 84.761719 L 154.949219 153.75 L 85.960938 154.953125 Z M 84.753906 85.964844 " clip-rule="nonzero"/></clipPath></defs><g clip-path="url(#89a58c63dc)"><g clip-path="url(#2beb03d2a4)"><g clip-path="url(#e3118ada5f)"><g clip-path="url(#ad7f0e634a)"><path fill="#000000" d="M 127.4375 101.554688 C 131.941406 101.476562 135.542969 97.75 135.464844 93.246094 C 135.382812 88.746094 131.65625 85.144531 127.152344 85.226562 C 122.648438 85.304688 119.050781 89.03125 119.128906 93.53125 C 119.207031 98.035156 122.933594 101.632812 127.4375 101.554688 Z M 127.175781 86.457031 C 131 86.390625 134.164062 89.445312 134.230469 93.269531 C 134.296875 97.089844 131.242188 100.253906 127.417969 100.320312 C 123.59375 100.390625 120.425781 97.332031 120.359375 93.511719 C 120.292969 89.6875 123.351562 86.523438 127.175781 86.457031 Z M 127.175781 86.457031 " fill-opacity="1" fill-rule="nonzero"/></g></g></g></g><g clip-path="url(#b208f4b1ab)"><g clip-path="url(#ccdec135d0)"><g clip-path="url(#ed1004fd24)"><g clip-path="url(#d93d7358c4)"><path fill="#000000" d="M 100.742188 148.976562 L 98.652344 149.015625 C 100.945312 147.53125 102.457031 144.941406 102.402344 142.011719 C 102.324219 137.511719 98.597656 133.914062 94.09375 133.992188 C 89.589844 134.070312 85.992188 137.796875 86.070312 142.296875 C 86.121094 145.226562 87.71875 147.761719 90.066406 149.164062 L 87.972656 149.199219 C 86.808594 149.222656 85.875 150.183594 85.898438 151.347656 L 85.921875 152.84375 C 85.945312 154.007812 86.90625 154.9375 88.070312 154.917969 L 100.84375 154.695312 C 102.007812 154.675781 102.9375 153.710938 102.917969 152.546875 L 102.890625 151.050781 C 102.871094 149.886719 101.90625 148.957031 100.742188 148.976562 Z M 87.300781 142.277344 C 87.234375 138.453125 90.292969 135.289062 94.117188 135.222656 C 97.941406 135.15625 101.105469 138.210938 101.171875 142.035156 C 101.238281 145.859375 98.183594 149.023438 94.359375 149.089844 C 90.535156 149.15625 87.367188 146.101562 87.300781 142.277344 Z M 101.6875 152.566406 C 101.695312 153.050781 101.308594 153.453125 100.820312 153.460938 L 88.050781 153.683594 C 87.566406 153.695312 87.164062 153.304688 87.15625 152.820312 L 87.128906 151.328125 C 87.121094 150.84375 87.507812 150.441406 87.992188 150.433594 L 100.765625 150.210938 C 101.25 150.199219 101.652344 150.589844 101.660156 151.074219 Z M 101.6875 152.566406 " fill-opacity="1" fill-rule="nonzero"/></g></g></g></g><g clip-path="url(#e4d918c09a)"><g clip-path="url(#f0f2a7a5bb)"><g clip-path="url(#2700754251)"><g clip-path="url(#2d2c69d571)"><path fill="#000000" d="M 150.523438 145.269531 L 137.136719 145.503906 C 137.0625 144.316406 136.738281 143.140625 136.132812 142.050781 L 130.953125 132.734375 L 133.601562 132.6875 L 133.613281 133.242188 C 133.617188 133.582031 133.898438 133.851562 134.238281 133.84375 L 140.554688 133.734375 C 140.894531 133.730469 141.164062 133.449219 141.15625 133.109375 L 141.148438 132.554688 L 146.167969 132.46875 C 148.523438 132.425781 150.410156 130.472656 150.371094 128.117188 C 150.328125 125.757812 148.375 123.875 146.015625 123.914062 L 140.433594 124.011719 C 140.433594 123.996094 140.441406 123.976562 140.441406 123.960938 L 140.105469 104.519531 C 140.074219 102.921875 138.753906 101.648438 137.15625 101.675781 L 132.769531 101.75 C 132.625 101.753906 132.484375 101.808594 132.375 101.902344 L 127.507812 106.148438 L 122.492188 102.074219 C 122.378906 101.984375 122.238281 101.933594 122.09375 101.9375 L 118.757812 101.996094 C 117.515625 102.046875 116.496094 102.5625 115.890625 103.449219 L 107.949219 115.09375 C 107.140625 116.277344 107.179688 117.839844 108.046875 118.984375 L 116.683594 130.335938 C 117.324219 131.175781 118.335938 131.667969 119.394531 131.648438 C 119.757812 131.644531 120.109375 131.5625 120.445312 131.441406 L 128.34375 145.65625 L 123.605469 145.738281 L 121.0625 138.917969 C 120.75 138.070312 120.089844 137.410156 119.246094 137.101562 C 118.402344 136.789062 117.464844 136.867188 116.675781 137.316406 C 115.394531 138.039062 114.832031 139.691406 115.367188 141.152344 L 117.09375 145.851562 L 108.28125 146.003906 C 105.921875 146.046875 104.035156 148 104.078125 150.355469 C 104.117188 152.714844 106.070312 154.601562 108.429688 154.558594 L 113.273438 154.472656 L 121.976562 154.320312 L 129.121094 154.199219 L 150.671875 153.824219 C 153.03125 153.78125 154.914062 151.828125 154.875 149.472656 C 154.832031 147.113281 152.882812 145.230469 150.523438 145.269531 Z M 139.910156 132.289062 L 139.914062 132.515625 L 134.832031 132.601562 L 134.828125 132.378906 C 134.804688 130.976562 135.925781 129.816406 137.324219 129.792969 C 138.726562 129.769531 139.886719 130.890625 139.910156 132.289062 Z M 135.457031 121 L 135.257812 109.457031 C 135.25 109.117188 134.96875 108.847656 134.628906 108.851562 C 134.289062 108.859375 134.019531 109.140625 134.023438 109.480469 L 134.210938 120.152344 L 134.28125 124.066406 C 134.28125 124.085938 134.289062 124.101562 134.292969 124.121094 L 123.675781 124.304688 C 122.746094 124.324219 121.859375 124.644531 121.140625 125.199219 L 114.796875 116.863281 L 119.417969 110.089844 C 119.609375 109.808594 119.535156 109.425781 119.257812 109.234375 C 118.976562 109.042969 118.59375 109.113281 118.398438 109.398438 L 113.53125 116.535156 C 113.378906 116.753906 113.386719 117.042969 113.546875 117.253906 L 120.917969 126.945312 C 121.578125 127.8125 121.5625 129.011719 120.878906 129.742188 C 120.011719 130.664062 118.410156 130.574219 117.664062 129.589844 L 109.027344 118.238281 C 108.480469 117.519531 108.457031 116.535156 108.964844 115.789062 L 116.910156 104.144531 C 117.421875 103.390625 118.320312 103.246094 118.796875 103.226562 L 121.890625 103.171875 L 127.132812 107.433594 C 127.363281 107.621094 127.699219 107.617188 127.925781 107.417969 L 133.015625 102.980469 L 137.179688 102.90625 C 138.097656 102.890625 138.855469 103.625 138.871094 104.539062 L 139.203125 123.546875 L 139.210938 123.980469 C 139.210938 124 139.21875 124.015625 139.222656 124.035156 L 135.5 124.097656 C 135.503906 124.082031 135.511719 124.066406 135.511719 124.046875 Z M 128.996094 146.875 C 129.398438 146.871094 129.613281 146.640625 129.722656 146.449219 C 129.832031 146.257812 129.921875 145.953125 129.730469 145.609375 L 121.507812 130.820312 C 121.597656 130.742188 121.695312 130.671875 121.777344 130.582031 C 122.867188 129.421875 122.917969 127.539062 121.898438 126.199219 C 122.410156 125.800781 123.03125 125.550781 123.699219 125.539062 L 146.039062 125.144531 C 147.71875 125.117188 149.109375 126.457031 149.136719 128.136719 C 149.167969 129.816406 147.824219 131.207031 146.144531 131.234375 L 140.992188 131.324219 C 140.542969 129.710938 139.054688 128.53125 137.304688 128.5625 C 135.550781 128.59375 134.109375 129.824219 133.714844 131.453125 L 129.90625 131.519531 C 129.6875 131.523438 129.488281 131.640625 129.382812 131.828125 C 129.273438 132.015625 129.273438 132.246094 129.375 132.4375 L 135.054688 142.652344 C 136.25 144.800781 136.230469 147.359375 135 149.492188 C 133.769531 151.625 131.566406 152.921875 129.105469 152.964844 L 123.402344 153.066406 C 124.613281 151.464844 124.945312 149.335938 124.230469 147.421875 L 124.058594 146.960938 Z M 105.308594 150.335938 C 105.277344 148.65625 106.621094 147.265625 108.300781 147.238281 L 117.542969 147.078125 L 118.351562 149.273438 L 113.183594 149.371094 C 112.84375 149.378906 112.570312 149.660156 112.578125 150 C 112.585938 150.339844 112.863281 150.609375 113.203125 150.601562 L 113.207031 150.601562 L 119.238281 150.488281 C 119.4375 150.484375 119.621094 150.386719 119.734375 150.222656 C 119.847656 150.058594 119.871094 149.847656 119.804688 149.660156 L 116.523438 140.730469 C 116.195312 139.824219 116.519531 138.816406 117.28125 138.386719 C 117.765625 138.113281 118.3125 138.070312 118.820312 138.257812 C 119.324219 138.441406 119.71875 138.835938 119.90625 139.34375 L 123.074219 147.851562 C 123.722656 149.585938 123.285156 151.546875 121.960938 152.847656 L 121.707031 153.09375 L 113.25 153.242188 L 108.40625 153.328125 C 106.726562 153.355469 105.335938 152.015625 105.308594 150.335938 Z M 150.648438 152.589844 L 133.4375 152.894531 C 133.574219 152.804688 133.699219 152.707031 133.824219 152.609375 C 134.71875 151.953125 135.488281 151.113281 136.066406 150.109375 C 136.667969 149.070312 137.007812 147.941406 137.117188 146.800781 L 137.128906 146.800781 C 137.128906 146.78125 137.132812 146.757812 137.136719 146.738281 L 150.542969 146.503906 C 152.222656 146.472656 153.613281 147.816406 153.644531 149.492188 C 153.671875 151.171875 152.328125 152.5625 150.648438 152.589844 Z M 150.648438 152.589844 " fill-opacity="1" fill-rule="nonzero"/></g></g></g></g></svg>