<?xml version="1.0" standalone="no"?>
<!DOCTYPE svg PUBLIC "-//W3C//DTD SVG 20010904//EN"
 "http://www.w3.org/TR/2001/REC-SVG-20010904/DTD/svg10.dtd">
<svg version="1.0" xmlns="http://www.w3.org/2000/svg"
 width="430.000000pt" height="430.000000pt" viewBox="0 0 430.000000 430.000000"
 preserveAspectRatio="xMidYMid meet">

<g transform="translate(0.000000,430.000000) scale(0.100000,-0.100000)"
fill="#000000" stroke="none">
<path d="M1596 4054 l-258 -214 48 -21 c207 -88 565 -231 570 -226 3 3 -1 49
-10 102 -16 103 -11 136 23 154 29 16 288 13 408 -4 216 -31 396 -88 592 -191
485 -253 823 -695 943 -1233 l22 -103 45 6 c24 3 55 6 69 6 24 0 24 1 18 60
-11 95 -69 293 -125 425 -149 352 -405 657 -731 871 -335 220 -705 328 -1105
324 -188 -2 -183 -3 -199 23 -9 12 -22 69 -31 127 -9 57 -17 105 -18 106 -1 1
-118 -94 -261 -212z"/>
<path d="M859 3541 c-222 -185 -386 -397 -515 -666 -130 -271 -188 -530 -188
-830 0 -379 94 -709 295 -1029 77 -124 76 -131 -31 -217 -44 -35 -80 -66 -80
-69 0 -5 613 -258 618 -255 1 1 -20 149 -48 328 -27 180 -50 331 -50 337 0 19
-16 10 -94 -55 -81 -67 -106 -76 -143 -50 -50 35 -172 265 -232 439 -96 273
-117 625 -55 924 54 262 162 503 322 722 65 89 231 261 320 332 39 31 61 56
58 64 -7 19 -70 103 -77 104 -3 0 -48 -35 -100 -79z"/>
<path d="M3826 1671 c-131 -110 -245 -205 -253 -213 -12 -13 -2 -20 79 -52 95
-39 138 -72 138 -107 0 -30 -72 -165 -149 -280 -223 -333 -566 -594 -936 -712
-267 -86 -483 -111 -745 -88 -169 15 -290 41 -448 96 l-124 43 -29 -65 c-16
-36 -28 -67 -27 -68 9 -8 205 -76 268 -93 353 -97 780 -84 1137 33 505 166
909 511 1152 983 68 134 64 133 240 63 l54 -22 -6 28 c-3 15 -27 169 -53 341
-26 171 -50 312 -53 312 -3 -1 -113 -90 -245 -199z"/>
</g>
</svg>
